<?xml version="1.0" standalone="no"?>
<!DOCTYPE svg PUBLIC "-//W3C//DTD SVG 20010904//EN"
 "http://www.w3.org/TR/2001/REC-SVG-20010904/DTD/svg10.dtd">
<svg version="1.0" xmlns="http://www.w3.org/2000/svg"
 width="200.000000pt" height="200.000000pt" viewBox="0 0 200.000000 200.000000"
 preserveAspectRatio="xMidYMid meet">
<metadata>
Created by potrace 1.14, written by Peter Selinger 2001-2017
</metadata>
<g transform="translate(0.000000,200.000000) scale(0.100000,-0.100000)"
fill="#000000" stroke="none">
<path d="M703 1562 c-10 -10 -25 -29 -33 -42 -8 -12 -28 -41 -44 -64 -111
-154 -143 -205 -137 -213 3 -6 17 -16 30 -22 19 -11 30 -9 70 9 40 19 54 35
91 99 24 42 57 95 72 118 37 54 45 95 23 116 -22 22 -51 21 -72 -1z m47 -29
c0 -17 -147 -252 -160 -256 -8 -3 -24 -8 -34 -13 -18 -7 45 92 148 233 29 39
46 53 46 36z"/>
<path d="M1317 1528 c-14 -11 -18 -39 -23 -158 -6 -150 -11 -281 -13 -337 l-1
-33 -79 0 -79 0 -17 -55 c-17 -51 -19 -54 -44 -49 -31 8 -66 38 -89 77 l-16
27 -118 0 -118 0 -1 35 c-1 19 -3 58 -4 85 -1 28 -3 61 -4 75 -2 35 -25 31
-57 -10 -14 -19 -35 -35 -45 -35 -11 0 -20 -6 -20 -12 -1 -7 -3 -20 -4 -28 -1
-8 -3 -36 -4 -62 l-1 -48 -45 0 c-50 0 -64 -15 -46 -48 12 -23 -13 -52 -46
-52 -32 0 -81 20 -87 36 -10 26 -32 15 -80 -41 -72 -84 -76 -95 -76 -228 0
-112 1 -119 25 -142 18 -19 35 -25 70 -25 38 0 45 -3 45 -20 0 -41 34 -60 110
-60 76 0 110 19 110 60 0 20 7 20 440 20 415 0 440 -1 440 -18 0 -10 7 -28 16
-40 13 -19 24 -22 90 -22 79 0 114 18 114 59 0 15 10 19 51 23 79 8 89 26 89
168 0 133 -3 142 -85 235 -69 78 -107 95 -215 95 -76 0 -80 1 -81 23 -1 54
-10 250 -13 327 -3 47 -5 102 -5 122 -1 58 -43 86 -84 56z m44 -65 c0 -21 2
-72 4 -113 2 -41 6 -137 9 -212 l4 -138 -28 0 -29 0 5 148 c3 81 7 174 9 207
1 33 3 79 4 103 1 52 21 56 22 5z m-684 -403 l3 -60 -29 0 c-30 0 -30 0 -28
55 2 45 5 55 20 55 9 0 17 5 17 12 0 6 3 8 7 4 4 -3 8 -33 10 -66z m292 -148
c47 -49 98 -70 135 -56 9 3 24 28 33 55 l18 49 210 0 c243 0 250 -2 323 -87
l45 -53 -732 0 c-402 0 -731 1 -731 3 0 2 13 18 28 35 l29 32 43 -15 c67 -24
105 -20 141 16 21 20 29 37 26 50 -5 18 2 19 190 19 l194 0 48 -48z m791 -240
c0 -71 -4 -112 -12 -120 -17 -17 -1479 -17 -1496 0 -8 8 -12 49 -12 120 l0
108 760 0 760 0 0 -108z m-1242 -189 c-3 -15 -14 -18 -68 -18 -54 0 -65 3 -68
18 -3 15 5 17 68 17 63 0 71 -2 68 -17z m1100 0 c-3 -15 -14 -18 -68 -18 -54
0 -65 3 -68 18 -3 15 5 17 68 17 63 0 71 -2 68 -17z"/>
<path d="M1264 669 c-10 -17 13 -36 27 -22 12 12 4 33 -11 33 -5 0 -12 -5 -16
-11z"/>
<path d="M1344 669 c-10 -17 13 -36 27 -22 12 12 4 33 -11 33 -5 0 -12 -5 -16
-11z"/>
<path d="M1424 669 c-10 -17 13 -36 27 -22 12 12 4 33 -11 33 -5 0 -12 -5 -16
-11z"/>
<path d="M1504 669 c-10 -17 13 -36 27 -22 12 12 4 33 -11 33 -5 0 -12 -5 -16
-11z"/>
<path d="M1584 669 c-10 -17 13 -36 27 -22 12 12 4 33 -11 33 -5 0 -12 -5 -16
-11z"/>
<path d="M328 1129 c-74 -38 -66 -87 16 -108 69 -17 90 -14 126 20 32 31 32
32 20 70 l-13 39 -56 0 c-36 -1 -70 -8 -93 -21z m125 -33 c8 -19 -24 -46 -54
-46 -13 1 -37 7 -54 14 l-30 13 30 16 c38 20 101 22 108 3z"/>
<path d="M925 1139 c-10 -15 41 -87 77 -109 51 -31 87 -35 109 -14 20 21 48
102 41 122 -5 16 -218 17 -227 1z m179 -51 c-12 -40 -23 -47 -53 -37 -16 6
-39 21 -52 35 l-22 24 67 0 c65 0 67 -1 60 -22z"/>
</g>
</svg>
